<?xml version="1.0" encoding="utf-8"?><svg width="1000px" height="200px" viewBox="0 0 1000 200" version="1.1" xmlns:xlink="http://www.w3.org/1999/xlink" xmlns="http://www.w3.org/2000/svg"><desc>Created with Lunacy</desc><defs><path d="M0 0L1000 0L1000 200L0 200L0 0Z" id="path_1"/><clipPath id="mask_1"><use xlink:href="#path_1"/></clipPath></defs><g id="siteby"><path d="M0 0L1000 0L1000 200L0 200L0 0Z" id="Background" fill="none" stroke="none"/><g clip-path="url(#mask_1)"><g id="footer" transform="translate(0 0.3999939)"><path d="M104.1 0C110.6 0 117.2 0.5 123.8 1.8C124.4 1.9 132.3 3 143.5 7.79999L143.8 9.09999C143.1 9.29999 142.3 9.49999 141.7 9.69999C130.2 4.79999 117.3 2.29999 104 2.29999C100.9 2.29999 97.6 2.39999 94.4 2.69999L91.7 3.09999C86.4 3.79999 81.1 4.89999 76.1 6.49999C36.7 18.9 10.7 53.8 10.7 90.4C10.7 98 11.8 105.8 14.2 113.3C25.2 148.3 59.2 170.6 96.8 170.6C106.2 170.6 116 169.2 125.6 166.2C149.9 158.9 170.1 142.1 181.4 120.8C188.6 107.3 191 94.1 191 82.8C191 73 189.2 64.5 186.9 58.1C182 42.6 172 29.6 159.5 19.9L159.5 19.1C159.5 18.2 159.4 17.2 159.2 16.3C165 20.3 171 25.1 177.3 31.2C185.9 41 192.5 52 195.3 63.2C197.5 71.1 198.5 79 198.5 86.9C198.5 127.7 170 166.8 126.8 180.2C116.6 183.4 106.2 185 95.7 185C79 185 62.4 180.9 47.4 173.2C25.8 162 10.4 144 3.8 122.4C1.3 114.2 0 106.1 0 98C0 58.1 28.5 19.3 71.9 5C82 1.7 92.9 0 104.1 0ZM107.4 7.89999C112.8 11.1 118.6 14.4 125.9 15.2C126.7 15.3 127.5 15.3 128.1 15.3C130.8 15.3 132.4 14.6 134 13.6C125.5 10.3 116.6 8.49999 107.4 7.89999ZM84.4 10C46.4 18.3 19.5 50.4 19.5 86.5C19.5 90.1 19.8 93.7 20.3 97.4C26 135.2 60.2 162.2 99.8 162.2C104.1 162.2 108.5 161.8 113 161.2C154 155.1 183.7 121.4 183.7 83.7C183.7 80.1 183.4 76.5 182.9 72.9L182.5 71.3C182.3 71.4 182.1 71.5 182 71.6C181.1 72 179.9 72.1 178.8 72.1C171.5 72.1 160.7 65.8 156.5 63.9C153.6 62.4 150 61.5 146.6 61.5C144.6 61.5 142.6 61.8 140.8 62.5C131.6 67.5 129.2 80.5 128.4 84.5C127.7 88.3 127 95.6 124.3 99.3C122 102.2 119.2 103.5 116.4 103.5C113.5 103.5 110.7 102.1 108.8 99.8C105 95.5 103.9 80.8 103.9 78.2C103.9 75.8 103 62.5 95.9 57.9C93.6 56.4 90.7 55.9 87.6 55.9C81.2 55.9 73.9 58.2 68 58.9C66.7 59.1 65.5 59.2 64.3 59.2C57.7 59.2 53.4 56.2 51.8 51.9C51.3 51 51.1 49.7 51.1 48.4C51.1 45.6 52.4 42.3 54.5 40.3C61.8 32.9 76.8 30.8 80.2 29.7C83.8 29 86.1 27.7 89.4 25.5C90.2 24.9 90.7 24.7 90.7 24.3C90.7 23.8 89.7 23.1 87.9 20.9C85.2 17.8 83.9 15.6 83.9 12.8C83.8 12.4 84 11.3 84.4 10ZM93 12.8C93 12 93.5 11.1 94.8 10.6C95.5 10.2 96.2 10.1 96.9 10.2C100.4 10.2 103.5 12.9 103.5 12.9C114.2 20.3 122.3 22.3 128.1 22.3C134.6 22.3 137.8 19.8 137.8 19.8C137.8 19.8 143.8 15.6 148 15.6C149.2 15.6 150.3 16.1 151 17C151.5 17.6 151.6 18.4 151.6 19.1C151.6 21.6 149.3 24.1 149.2 24.2C146.7 27.5 145.5 30.3 145.5 32.9C145.5 40.1 154 45 165.2 49.8C181.4 56.7 178.9 61.8 178.9 61.8C178.6 62.7 177.8 63 176.6 63C171.4 63 160.1 56.4 160 56.4C154.9 53.8 150.3 52.8 146.3 52.8C131.5 52.8 124.7 67.6 123 75.6C122.306 78.4325 121.82 81.1263 121.388 83.5205C120.264 89.7482 119.506 93.9501 116.4 93.3C112.6 92.1 111.8 73.7 111.8 73.6C109.7 51.6 98.9 47.2 89.6 47.2C84.6 47.2 80.1 48.5 77.5 49C73.5 49.8 69.6 50.6 66.7 50.6C63.7 50.6 61.6 49.7 61.6 47.1C61.6 41.1 79.1 37.7 79.1 37.7C95.5 33.6 99.6 28.4 99.6 24.2C99.6 20.2 95.8 17.3 95.8 17.3C95.8 17.3 93 14.9 93 12.8ZM590.5 21.8L571 21.8L571 144.3C571 148.2 569.4 151.9 563.8 154.7L573.9 165.4C579.2 164.1 582.6 161.2 585 158.6C592.2 162.4 599.3 164.8 609.8 164.8C631.1 164.8 649.3 152 649.3 129.9L649.3 87.9C649.3 65.4 635.4 53.1 614.1 53.1C609 53.1 597.5 55 590.5 59.7L590.5 21.8ZM365.7 22.7405L365.8 22.7L365.7 22.7L365.7 22.7405ZM365.7 22.7405L345.8 30.8L345.8 55.1L331.6 55.1L331.6 71.5L345.8 71.5L345.8 140.2C345.8 159.7 356.4 164.7 365.9 164.7C376.1 164.7 382.8 161.9 387.5 157.6L382.4 141.1C379.5 144.5 375.6 146.2 372.3 146.2C368.6 146.2 365.8 144 365.8 139.3L365.8 71.5L389 71.5L392 55.1L365.7 55.1L365.7 22.7405ZM154.4 30.4L156.6 27.2C163.2 32.6 168.6 39 173 46.2C171.6 45.6 170.3 44.9 168.8 44.4C160.6 40.9 156.4 38.3 154.8 36.5C153.8 35.5 153.2 34.8 153.2 33.6C153.2 32.8 153.6 31.9 154.4 30.4ZM285.3 27.6C260 27.6 242.7 42.7 242.7 63.9C242.7 83.1 255.2 95 271.2 103.2C279.9 107.8 291.9 112.4 299.1 120.5C302.6 124.3 304.1 129.1 304.1 133.9C304.1 139.7 301.7 145.6 297.1 149.7C292.5 153.2 286.1 155.1 278.8 155.1C270.7 155.1 260.1 151.5 250.4 142.4L238.7 157.2C248.4 167 260.5 172.6 279.2 172.6C299.1 172.6 317.2 163.7 323.3 145C324.5 141.5 325 137.8 325 134C325 128 323.6 122 320.6 116.1C316 107.1 308.9 100.9 300.3 95.8C287.4 88.4 263.1 80.7 263.1 64C263.1 54.1 270.7 45.7 283.9 45.7C293.6 45.7 303.2 49.3 309.7 57L321.2 42.6C315.1 36 303.9 27.6 285.3 27.6ZM406 59.7C413.9 49.6 426.6 43.6 442.9 43.6C464.8 43.6 479 57.2 478.9 79.2L478.9 132.8C478.9 137.4 481 141.3 485.8 146.6L474.6 156C469.3 153.7 467.1 152.4 463.2 147.7C455.8 153 446.8 155.4 438 155.4C419.7 155.4 408.7 146.5 404.3 135.3C402.7 131.4 402 127.2 402 122.9C402 106 414.2 88.2 439.7 88.2L458.9 88.2L458.9 77.8C459.1 65.3 450.4 60.4 441.6 60.4C434.3 60.4 424.8 62.6 416.9 73L406 59.7ZM541.9 53.2C531.7 53.2 523.9 58.1 520.2 66.4C519.5 61.8 514.5 55.1 511.7 54.4L498.1 62.6C500.5 64.3 503.9 70.7 503.9 76.6L503.7 163.1L523.4 163.1L523.4 90.3C523.4 79 532 73.7 541 73.7C545.4 73.7 549.8 75 553.4 77.4L559.4 58.3C556.7 56.5 550 53.2 541.9 53.2ZM666.9 88.2C666.9 64.3 684.1 53.2 706.4 53.2C724.8 53.2 743.2 63.1 743 89.8L743 115.1L686.8 115.1L686.8 125.8C686.8 139.9 695.4 146.6 706.3 146.6C715.7 146.6 723.6 143.5 734.8 135.6L743.1 152.6C732.7 160 722.7 165 705.5 165C682.5 165 666.9 150.7 666.9 127.6L666.9 88.2ZM780.9 66.4C784.4 58.1 792.2 53.2 802.4 53.2C810.5 53.2 817.2 56.5 819.9 58.3L813.9 77.4C810.3 75 805.9 73.7 801.5 73.7C792.5 73.7 783.9 79 783.9 90.3L783.9 163.1L764.3 163.1L764.5 76.6C764.5 70.7 761 64.3 758.5 62.6L772.2 54.4C774.9 55.1 779.9 61.8 780.9 66.4ZM870.1 53.2C859.9 53.2 852.2 58.1 848.6 66.4C847.7 61.8 843.1 55.1 840 54.4L826.2 62.6C828.7 64.3 832.1 70.7 832.1 76.6L832 163.1L851.5 163.1L851.5 90.3C851.5 79 860.1 73.7 869.1 73.7C873.5 73.7 877.9 75 881.5 77.4L887.7 58.3C885.1 56.5 878.1 53.2 870.1 53.2ZM960.1 55L981.7 55L944.1 175.9C940.9 186.5 930.6 197 920 199.2L912.5 186.4C920.1 183 924.2 177.2 928.3 164.4C925.3 162.4 893.4 55.3 893.4 55.3L915.6 55L934.9 127.2C936.2 131.8 936.4 135.7 936.4 138C936.4 139.5 936.3 140.3 936.3 140.3L960.1 55ZM705.8 70.5C712.1 70.5 723 74.8 723 87L723 97.7L687 97.7L687 88.4C686.9 76.6 695.3 70.5 705.8 70.5ZM629.3 88C629.3 76 621.4 70.7 612.4 70.7C605.8 70.7 596.9 73.3 590.5 78.6L590.5 142.2C597.2 146.9 604.6 147.6 609.8 147.6C618.8 147.6 629.3 142.6 629.3 130.3L629.3 88ZM457.8 114.9L457.8 140.3C451.5 144.9 445.2 147.7 438.8 147.7C436.8 147.7 434.8 147.5 432.8 146.9C425.2 144.8 421.3 138.4 421.3 131.8C421.3 123.5 427.6 115 440.4 114.9L457.8 114.9ZM970.7 149.4C970.7 141.4 977.1 135 985.3 135C993.4 135 1000 141.3 1000 149.4C1000 157.5 993.4 164 985.3 164C977.1 164 970.7 157.4 970.7 149.4ZM985.3 136.5C992.4 136.5 998 142.5 998 149.5C998 156.6 992.5 162.5 985.3 162.5C978.1 162.5 972.4 156.6 972.4 149.5C972.5 142.5 978.1 136.5 985.3 136.5ZM985.9 141.7L981.5 141.7L981.5 157.6L983.2 157.6L983.2 150.9L985.4 150.9L989.7 157.6L991.6 157.6L987.2 150.9C989.7 150.6 990.6 148.7 990.6 146.8L990.6 145.4C990.5 142.8 988.2 141.7 985.9 141.7ZM988.6 145.6C988.6 143.6 986.9 143.2 985.4 143.2L985.4 143.1L983.1 143.1L983.1 149.4L985.4 149.4C987 149.4 988.6 148.6 988.6 146.5L988.6 145.6Z" id="Shape" fill="#FFFFFF" fill-rule="evenodd" stroke="none"/></g></g></g></svg>