<svg width="99" height="32" viewBox="0 0 99 32" fill="none" xmlns="http://www.w3.org/2000/svg">
<g clip-path="url(#clip0_2495_10298)">
<path d="M12.375 11.7363V15.0184H20.295C20.0475 16.9056 19.3875 18.2184 18.48 19.203C17.325 20.3517 15.51 21.6645 12.2925 21.6645C7.425 21.6645 3.5475 17.7261 3.5475 12.803C3.5475 7.87994 7.425 4.02353 12.375 4.02353C15.015 4.02353 16.9125 5.09019 18.3975 6.40301L20.7075 4.10558C18.7275 2.13635 16.0875 0.659424 12.375 0.659424C5.6925 0.659424 0 6.15686 0 12.803C0 19.4492 5.61 24.9466 12.375 24.9466C16.005 24.9466 18.7275 23.7979 20.8725 21.5825C23.1 19.3671 23.76 16.3312 23.76 13.7876C23.76 13.0492 23.6775 12.3107 23.595 11.7363H12.375Z" fill="white"/>
<path d="M33.6593 9.02808C29.2868 9.02808 25.7393 12.3101 25.7393 16.905C25.7393 21.4178 29.2868 24.7819 33.6593 24.7819C38.0318 24.7819 41.5793 21.4999 41.5793 16.905C41.5793 12.3101 38.0318 9.02808 33.6593 9.02808ZM33.6593 21.5819C31.2668 21.5819 29.2043 19.6127 29.2043 16.8229C29.2043 14.0332 31.2668 12.064 33.6593 12.064C36.0518 12.064 38.1143 14.0332 38.1143 16.8229C38.1143 19.6947 36.0518 21.5819 33.6593 21.5819Z" fill="white"/>
<path d="M72.3518 10.7512H72.2693C71.5268 9.84859 70.0418 9.02808 68.1443 9.02808C64.1843 9.02808 60.8018 12.4742 60.8018 16.905C60.8018 21.3358 64.2668 24.7819 68.1443 24.7819C70.0418 24.7819 71.5268 23.9614 72.2693 22.9768H72.3518V24.0435C72.3518 27.0794 70.7018 28.6383 68.1443 28.6383C65.9993 28.6383 64.6793 27.1614 64.1843 25.8486L61.2143 27.0794C62.1218 29.1306 64.3493 31.6742 68.2268 31.6742C72.2693 31.6742 75.7343 29.2947 75.7343 23.4691V9.43833H72.4343V10.7512H72.3518ZM68.3918 21.5819C65.9993 21.5819 64.1843 19.5306 64.1843 16.8229C64.1843 14.0332 65.9993 12.064 68.3918 12.064C70.7843 12.064 72.5993 14.1153 72.5993 16.8229C72.5993 19.6127 70.7843 21.5819 68.3918 21.5819Z" fill="white"/>
<path d="M51.3145 9.02808C46.942 9.02808 43.3945 12.3101 43.3945 16.905C43.3945 21.4178 46.942 24.7819 51.3145 24.7819C55.687 24.7819 59.2345 21.4999 59.2345 16.905C59.152 12.3101 55.6045 9.02808 51.3145 9.02808ZM51.3145 21.5819C48.922 21.5819 46.8595 19.6127 46.8595 16.8229C46.8595 14.0332 48.922 12.064 51.3145 12.064C53.707 12.064 55.7695 14.0332 55.7695 16.8229C55.7695 19.6947 53.707 21.5819 51.3145 21.5819Z" fill="white"/>
<path d="M78.375 0.988037H81.7575V24.7009H78.375V0.988037Z" fill="white"/>
<path d="M92.2355 21.5822C90.503 21.5822 89.2655 20.7617 88.4405 19.2027L99.0005 14.854L98.6705 13.9514C98.0105 12.2283 96.0305 8.94629 91.9055 8.94629C87.863 8.94629 84.4805 12.1463 84.4805 16.8232C84.4805 21.254 87.7805 24.7001 92.318 24.7001C95.948 24.7001 98.0105 22.4847 98.8355 21.254L96.1955 19.4489C95.2055 20.7617 94.0505 21.5822 92.2355 21.5822ZM91.988 11.9822C93.3905 11.9822 94.5455 12.7206 94.958 13.7053L87.863 16.6591C87.863 13.295 90.2555 11.9822 91.988 11.9822Z" fill="white"/>
</g>
<defs>
<clipPath id="clip0_2495_10298">
<rect width="99" height="32" fill="white"/>
</clipPath>
</defs>
</svg>
