<svg width="120" height="39" viewBox="0 0 120 39" fill="none" xmlns="http://www.w3.org/2000/svg">
<g clip-path="url(#clip0_2455_10296)">
<path d="M15 14.3037V18.3037H24.6C24.3 20.6037 23.5 22.2037 22.4 23.4037C21 24.8037 18.8 26.4037 14.9 26.4037C9 26.4037 4.3 21.6037 4.3 15.6037C4.3 9.60371 9 4.90371 15 4.90371C18.2 4.90371 20.5 6.20371 22.3 7.80371L25.1 5.00371C22.7 2.60371 19.5 0.803711 15 0.803711C6.9 0.803711 0 7.50371 0 15.6037C0 23.7037 6.8 30.4037 15 30.4037C19.4 30.4037 22.7 29.0037 25.3 26.3037C28 23.6037 28.8 19.9037 28.8 16.8037C28.8 15.9037 28.7 15.0037 28.6 14.3037H15Z" fill="#081D3C"/>
<path d="M40.7992 11.0029C35.4992 11.0029 31.1992 15.0029 31.1992 20.6029C31.1992 26.1029 35.4992 30.2029 40.7992 30.2029C46.0992 30.2029 50.3992 26.2029 50.3992 20.6029C50.3992 15.0029 46.0992 11.0029 40.7992 11.0029ZM40.7992 26.3029C37.8992 26.3029 35.3992 23.9029 35.3992 20.5029C35.3992 17.1029 37.8992 14.7029 40.7992 14.7029C43.6992 14.7029 46.1992 17.1029 46.1992 20.5029C46.1992 24.0029 43.6992 26.3029 40.7992 26.3029Z" fill="#081D3C"/>
<path d="M87.6992 13.1029H87.5992C86.6992 12.0029 84.8992 11.0029 82.5992 11.0029C77.7992 11.0029 73.6992 15.2029 73.6992 20.6029C73.6992 26.0029 77.8992 30.2029 82.5992 30.2029C84.8992 30.2029 86.6992 29.2029 87.5992 28.0029H87.6992V29.3029C87.6992 33.0029 85.6992 34.9029 82.5992 34.9029C79.9992 34.9029 78.3992 33.1029 77.7992 31.5029L74.1992 33.0029C75.2992 35.5029 77.9992 38.6029 82.6992 38.6029C87.5992 38.6029 91.7992 35.7029 91.7992 28.6029V11.5029H87.7992V13.1029H87.6992ZM82.8992 26.3029C79.9992 26.3029 77.7992 23.8029 77.7992 20.5029C77.7992 17.1029 79.9992 14.7029 82.8992 14.7029C85.7992 14.7029 87.9992 17.2029 87.9992 20.5029C87.9992 23.9029 85.7992 26.3029 82.8992 26.3029Z" fill="#081D3C"/>
<path d="M62.1996 11.0029C56.8996 11.0029 52.5996 15.0029 52.5996 20.6029C52.5996 26.1029 56.8996 30.2029 62.1996 30.2029C67.4996 30.2029 71.7996 26.2029 71.7996 20.6029C71.6996 15.0029 67.3996 11.0029 62.1996 11.0029ZM62.1996 26.3029C59.2996 26.3029 56.7996 23.9029 56.7996 20.5029C56.7996 17.1029 59.2996 14.7029 62.1996 14.7029C65.0996 14.7029 67.5996 17.1029 67.5996 20.5029C67.5996 24.0029 65.0996 26.3029 62.1996 26.3029Z" fill="#081D3C"/>
<path d="M95 1.2041H99.1V30.1041H95V1.2041Z" fill="#081D3C"/>
<path d="M111.8 26.3033C109.7 26.3033 108.2 25.3033 107.2 23.4033L120 18.1033L119.6 17.0033C118.8 14.9033 116.4 10.9033 111.4 10.9033C106.5 10.9033 102.4 14.8033 102.4 20.5033C102.4 25.9033 106.4 30.1033 111.9 30.1033C116.3 30.1033 118.8 27.4033 119.8 25.9033L116.6 23.7033C115.4 25.3033 114 26.3033 111.8 26.3033ZM111.5 14.6033C113.2 14.6033 114.6 15.5033 115.1 16.7033L106.5 20.3033C106.5 16.2033 109.4 14.6033 111.5 14.6033Z" fill="#081D3C"/>
</g>
<defs>
<clipPath id="clip0_2455_10296">
<rect width="120" height="39" fill="white"/>
</clipPath>
</defs>
</svg>
