<svg width="143" height="41" viewBox="0 0 143 41" fill="none" xmlns="http://www.w3.org/2000/svg">
<g clip-path="url(#clip0_3855_11128)">
<path fill-rule="evenodd" clip-rule="evenodd" d="M39.3327 16.543V40.2984H13.0289V23.2311L19.6675 17.8366V33.6778H32.6942V19.6891L19.7856 9.20054L19.7105 9.13939L6.72743 19.6891V40.3327H0.0888672V16.543L19.7105 0.599854L39.3327 16.543Z" fill="white"/>
</g>
<path d="M57.2934 33.2041C57.4454 33.9135 57.7367 34.5595 58.1674 35.1421C58.6234 35.6995 59.2187 36.1428 59.9534 36.4721C60.7134 36.8015 61.6127 36.9661 62.6514 36.9661C64.2474 36.9661 65.438 36.5988 66.2234 35.8641C67.0087 35.1041 67.4014 34.2175 67.4014 33.2041C67.4014 32.3681 67.148 31.6715 66.6414 31.1141C66.16 30.5568 65.476 30.0881 64.5894 29.7081C63.7027 29.3028 62.6894 28.9228 61.5494 28.5681C60.5107 28.2641 59.51 27.9475 58.5474 27.6181C57.5847 27.2635 56.7107 26.8328 55.9254 26.3261C55.1654 25.7941 54.5574 25.1228 54.1014 24.3121C53.6454 23.4761 53.43 22.4375 53.4554 21.1961C53.4554 19.5748 53.8354 18.2068 54.5954 17.0921C55.3554 15.9521 56.4194 15.0908 57.7874 14.5081C59.1554 13.9255 60.726 13.6341 62.4994 13.6341C63.994 13.6341 65.3367 13.8495 66.5274 14.2801C67.7434 14.6855 68.7694 15.2935 69.6054 16.1041C70.4414 16.8895 71.062 17.8648 71.4674 19.0301L67.3254 20.3981C67.1734 19.8408 66.8694 19.3468 66.4134 18.9161C65.9574 18.4601 65.3874 18.1055 64.7034 17.8521C64.0447 17.5988 63.3227 17.4595 62.5374 17.4341C61.676 17.4088 60.9034 17.5355 60.2194 17.8141C59.5607 18.0928 59.0287 18.4981 58.6234 19.0301C58.218 19.5368 58.0154 20.1321 58.0154 20.8161C58.0154 21.6015 58.2434 22.2221 58.6994 22.6781C59.1554 23.1088 59.7507 23.4761 60.4854 23.7801C61.2454 24.0588 62.0814 24.3501 62.9934 24.6541C64.0574 24.9581 65.1087 25.3128 66.1474 25.7181C67.2114 26.0981 68.174 26.5921 69.0354 27.2001C69.922 27.7828 70.6314 28.5301 71.1634 29.4421C71.6954 30.3541 71.9614 31.4941 71.9614 32.8621C71.9614 34.3315 71.6194 35.6615 70.9354 36.8521C70.2767 38.0428 69.2634 38.9928 67.8954 39.7021C66.5274 40.4115 64.83 40.7661 62.8034 40.7661C61.1567 40.7661 59.6494 40.5255 58.2814 40.0441C56.9387 39.5375 55.8114 38.8281 54.8994 37.9161C54.0127 36.9788 53.43 35.8768 53.1514 34.6101L57.2934 33.2041Z" fill="white"/>
<path d="M75.7877 21.5001H80.0817V40.5001H75.7877V21.5001ZM77.9537 18.6121C77.1683 18.6121 76.5097 18.3461 75.9777 17.8141C75.4457 17.2821 75.1797 16.6488 75.1797 15.9141C75.1797 15.1288 75.4457 14.4701 75.9777 13.9381C76.5097 13.4061 77.1683 13.1401 77.9537 13.1401C78.7137 13.1401 79.3597 13.4061 79.8917 13.9381C80.4237 14.4701 80.6897 15.1288 80.6897 15.9141C80.6897 16.6488 80.4237 17.2821 79.8917 17.8141C79.3597 18.3461 78.7137 18.6121 77.9537 18.6121Z" fill="white"/>
<path d="M84.7558 21.5001H88.6318L88.9738 23.8561C89.4805 23.2228 90.0758 22.7035 90.7598 22.2981C91.4438 21.8675 92.1785 21.5761 92.9638 21.4241C93.7745 21.2721 94.5852 21.2975 95.3958 21.5001V25.4521C94.7372 25.2241 94.0278 25.1735 93.2678 25.3001C92.5332 25.4015 91.8492 25.6801 91.2158 26.1361C90.5825 26.5668 90.0632 27.1875 89.6578 27.9981C89.2525 28.7835 89.0498 29.7588 89.0498 30.9241V40.5001H84.7558V21.5001Z" fill="white"/>
<path d="M98.3912 21.5001H102.685V40.5001H98.3912V21.5001ZM100.557 18.6121C99.7718 18.6121 99.1132 18.3461 98.5812 17.8141C98.0492 17.2821 97.7832 16.6488 97.7832 15.9141C97.7832 15.1288 98.0492 14.4701 98.5812 13.9381C99.1132 13.4061 99.7718 13.1401 100.557 13.1401C101.317 13.1401 101.963 13.4061 102.495 13.9381C103.027 14.4701 103.293 15.1288 103.293 15.9141C103.293 16.6488 103.027 17.2821 102.495 17.8141C101.963 18.3461 101.317 18.6121 100.557 18.6121Z" fill="white"/>
<path d="M123.623 40.5001H119.671L119.405 38.6001C118.772 39.2841 118.012 39.8161 117.125 40.1961C116.239 40.5761 115.301 40.7661 114.313 40.7661C112.819 40.7661 111.527 40.4621 110.437 39.8541C109.373 39.2208 108.55 38.3088 107.967 37.1181C107.385 35.9021 107.093 34.4075 107.093 32.6341V21.5001H111.387V32.0641C111.387 33.6348 111.704 34.8381 112.337 35.6741C112.971 36.4848 113.946 36.8901 115.263 36.8901C116.53 36.8901 117.518 36.4848 118.227 35.6741C118.962 34.8381 119.329 33.6095 119.329 31.9881V21.5001H123.623V40.5001Z" fill="white"/>
<path d="M130.359 34.3821C130.536 35.0915 130.84 35.6361 131.271 36.0161C131.727 36.3961 132.221 36.6621 132.753 36.8141C133.285 36.9408 133.792 37.0041 134.273 37.0041C135.261 37.0041 136.034 36.8141 136.591 36.4341C137.174 36.0288 137.465 35.5221 137.465 34.9141C137.465 34.4075 137.275 34.0148 136.895 33.7361C136.515 33.4575 136.021 33.2421 135.413 33.0901C134.83 32.9128 134.222 32.7355 133.589 32.5581C132.905 32.3808 132.17 32.1781 131.385 31.9501C130.625 31.7221 129.903 31.4055 129.219 31.0001C128.535 30.5948 127.978 30.0755 127.547 29.4421C127.116 28.8088 126.901 28.0235 126.901 27.0861C126.901 25.8955 127.23 24.8695 127.889 24.0081C128.548 23.1215 129.447 22.4375 130.587 21.9561C131.727 21.4748 133.006 21.2341 134.425 21.2341C136.122 21.2341 137.592 21.5888 138.833 22.2981C140.074 23.0075 140.974 24.0461 141.531 25.4141L137.769 26.6301C137.592 26.2755 137.326 25.9715 136.971 25.7181C136.642 25.4648 136.236 25.2875 135.755 25.1861C135.299 25.0595 134.83 24.9961 134.349 24.9961C133.538 24.9961 132.854 25.1608 132.297 25.4901C131.74 25.8195 131.461 26.2881 131.461 26.8961C131.461 27.2001 131.55 27.4661 131.727 27.6941C131.93 27.9221 132.196 28.1121 132.525 28.2641C132.854 28.3908 133.247 28.5175 133.703 28.6441C134.159 28.7455 134.64 28.8721 135.147 29.0241C135.958 29.2521 136.756 29.5055 137.541 29.7841C138.352 30.0375 139.086 30.3668 139.745 30.7721C140.429 31.1775 140.961 31.7095 141.341 32.3681C141.746 33.0268 141.974 33.8628 142.025 34.8761C142.025 35.9655 141.708 36.9661 141.075 37.8781C140.442 38.7648 139.53 39.4741 138.339 40.0061C137.174 40.5128 135.78 40.7661 134.159 40.7661C132.284 40.7661 130.676 40.3608 129.333 39.5501C127.99 38.7395 127.078 37.4348 126.597 35.6361L130.359 34.3821Z" fill="white"/>
<defs>
<clipPath id="clip0_3855_11128">
<rect width="39.3642" height="39.9034" fill="white" transform="translate(0 0.5)"/>
</clipPath>
</defs>
</svg>
