<svg width="68" height="15" viewBox="0 0 68 15" fill="none" xmlns="http://www.w3.org/2000/svg">
<path fill-rule="evenodd" clip-rule="evenodd" d="M67.682 4.45019H66.199L64.5719 10.4665C64.5749 10.4114 64.5749 10.3562 64.5719 10.3011C64.5705 10.0451 64.5363 9.79039 64.4702 9.54361L63.1481 4.45019H61.6227C61.6227 4.45019 63.8176 11.9989 64.0125 12.1382C63.7329 13.0089 63.4533 13.4529 62.9278 13.688L63.4448 14.5587C64.2293 14.3296 64.8498 13.7116 65.0973 12.9131L67.682 4.45019ZM60.055 4.31937C59.4223 4.28301 58.8343 4.65451 58.5804 5.25099C58.5078 4.8892 58.2932 4.57419 57.9872 4.38031L57.038 4.96367C57.2945 5.22655 57.438 5.58398 57.4364 5.95623V12.051H58.7753V6.94011C58.7749 6.62445 58.9008 6.32246 59.1236 6.10509C59.3465 5.88772 59.6465 5.77406 59.9532 5.7908C60.2547 5.78994 60.5495 5.88083 60.8007 6.052L61.2244 4.71117C60.8678 4.46549 60.4503 4.32955 60.021 4.31937H60.055ZM55.4109 4.31947C54.7776 4.28052 54.1883 4.65286 53.9364 5.25109C53.8519 4.89471 53.6402 4.58395 53.3432 4.38041L52.394 4.96376C52.6537 5.22521 52.8002 5.58283 52.8008 5.95633V12.051H54.1483V6.94018C54.148 6.62765 54.2717 6.32856 54.4907 6.11173C54.7098 5.8949 55.0053 5.77906 55.3092 5.7909C55.6107 5.79004 55.9056 5.88093 56.1567 6.0521L56.5635 4.71127C56.2127 4.46654 55.8009 4.33054 55.377 4.31947H55.4109ZM48.7755 5.54719C49.0832 5.53781 49.3817 5.6563 49.6034 5.87586C49.8251 6.09543 49.9512 6.39754 49.9534 6.7139V7.4627H47.4619V6.80098C47.4456 6.4504 47.5782 6.10984 47.8254 5.8676C48.0726 5.62534 48.4099 5.50526 48.75 5.53848L48.7755 5.54719ZM48.8178 4.31941C47.2839 4.31941 46.1059 5.10302 46.1059 6.78338V9.56083C46.0739 10.2833 46.347 10.9849 46.8553 11.4853C47.3635 11.9857 48.0573 12.2364 48.7585 12.1729C49.6778 12.1888 50.5747 11.8816 51.3009 11.3022L50.75 10.1442C50.1993 10.6186 49.5105 10.8912 48.7924 10.9191C48.4127 10.9381 48.0445 10.7828 47.7874 10.4951C47.5303 10.2075 47.4111 9.81729 47.4619 9.43024V8.68144H51.3178V6.94011C51.3861 6.23052 51.143 5.52655 50.6548 5.0198C50.1664 4.51307 49.4837 4.2563 48.7924 4.31941H48.8178ZM40.8434 2.09923H39.5044V10.7363C39.509 11.0628 39.3116 11.3564 39.0128 11.4676L39.6993 12.2164C39.9961 12.1428 40.2629 11.9753 40.462 11.7376C40.9802 12.0324 41.5646 12.1825 42.1569 12.1729C42.8392 12.2433 43.5194 12.0187 44.034 11.5528C44.5484 11.0869 44.8509 10.422 44.8687 9.71763V6.76601C44.9249 6.09488 44.6873 5.43285 44.2204 4.9599C43.7535 4.48694 43.1059 4.25219 42.4535 4.31944C41.8848 4.33131 41.3282 4.49 40.8349 4.7809L40.8434 2.09923ZM42.3433 5.58193C42.6611 5.55998 42.9722 5.68262 43.1942 5.91735C43.4161 6.15207 43.5264 6.47515 43.4959 6.80091V9.78727C43.488 10.1359 43.3392 10.4655 43.0852 10.6968C42.831 10.9281 42.4947 11.0402 42.1569 11.0062C41.6881 11.0235 41.2258 10.8896 40.8349 10.6232V6.11305C41.2722 5.75122 41.8157 5.5518 42.3772 5.54711L42.3433 5.58193ZM37.5043 4.31938C36.8705 4.28688 36.2821 4.65656 36.0213 5.25099C35.9517 4.89029 35.7402 4.57519 35.4366 4.38032L34.4959 4.96367C34.7501 5.22818 34.8931 5.58456 34.8943 5.95624V12.051H36.2417V6.94011C36.2409 6.62125 36.3692 6.31635 36.5958 6.09842C36.8224 5.88049 37.127 5.76907 37.4366 5.79081C37.738 5.78995 38.0329 5.88084 38.2841 6.05202L38.6908 4.71118C38.34 4.46645 37.9282 4.33045 37.5043 4.31938ZM30.6401 4.3195C29.6641 4.26183 28.7199 4.68546 28.0977 5.46009L28.8181 6.39171C29.2088 5.8323 29.8428 5.50661 30.513 5.52104C30.8372 5.49093 31.1577 5.6109 31.3871 5.84827C31.6165 6.08565 31.731 6.41574 31.6994 6.74872V7.48007H30.4112C29.7452 7.4214 29.0859 7.65302 28.5943 8.11832C28.1027 8.58369 27.824 9.23992 27.8265 9.92662C27.8249 10.2248 27.8796 10.5205 27.9876 10.7973C28.3792 11.7343 29.3124 12.3068 30.3011 12.2165C30.9073 12.2159 31.4988 12.0244 31.9959 11.668C32.1954 11.9359 32.4662 12.1386 32.7756 12.2513L33.5468 11.5896C33.2701 11.3412 33.0996 10.9909 33.0722 10.6145V6.82704C33.1176 6.15031 32.8763 5.48641 32.4102 5.00591C31.9443 4.52542 31.2989 4.27519 30.6401 4.3195ZM31.7333 8.67291V10.4577C31.3662 10.7692 30.912 10.9522 30.4366 10.9802C30.2988 10.9815 30.1616 10.9609 30.0299 10.9192C29.56 10.7947 29.2342 10.3556 29.2418 9.85698C29.2548 9.52654 29.397 9.21546 29.6363 8.9942C29.8756 8.77294 30.1917 8.66026 30.513 8.68159L31.7333 8.67291ZM25.4283 2.16885L24.0554 2.73478V4.47613H23.0723V5.608H24.0469V10.4489C24.0469 11.8246 24.7757 12.1903 25.4283 12.1903C25.9676 12.2258 26.4993 12.0448 26.9113 11.6853L26.5553 10.5186C26.3861 10.7333 26.1373 10.8659 25.8689 10.8843C25.7428 10.893 25.6195 10.8435 25.5326 10.7492C25.4457 10.6548 25.4043 10.5256 25.4198 10.3967V5.608H27.0129L27.2248 4.45001H25.4283V2.16885ZM19.6825 1.95125C17.9453 1.95125 16.7589 3.01347 16.7589 4.51102C16.8114 5.75394 17.5823 6.84411 18.7165 7.27976C19.4184 7.5699 20.0663 7.98224 20.6317 8.49873C20.8601 8.75854 20.9843 9.09767 20.9792 9.44776C20.9783 9.8726 20.8029 10.2773 20.4961 10.5622C20.1286 10.8243 19.689 10.9585 19.2418 10.9453C18.5091 10.9157 17.8136 10.6051 17.2927 10.0747L16.4876 11.1195C17.2183 11.8767 18.2314 12.2734 19.2673 12.2078C20.5864 12.3243 21.8209 11.5284 22.2927 10.2574C22.3723 10.0073 22.4123 9.74574 22.4113 9.48258C22.4103 9.04258 22.3056 8.60944 22.1063 8.22011C21.7864 7.6166 21.3038 7.12083 20.7164 6.79222C19.869 6.26978 18.1741 5.72997 18.1741 4.54585C18.1813 4.17373 18.3408 3.82195 18.6133 3.57674C18.8859 3.33153 19.2463 3.21556 19.6063 3.25726C20.2705 3.24654 20.9057 3.53626 21.3435 4.04957L22.1402 3.0483C21.513 2.33086 20.6124 1.93023 19.6741 1.95125H19.6825ZM11.064 2.48235L10.9115 2.70873C10.8674 2.77616 10.8412 2.85415 10.8352 2.93511C10.8429 3.0172 10.8826 3.0926 10.9454 3.14407C11.2179 3.38571 11.5309 3.57451 11.8691 3.7013L12.1572 3.82319C11.8654 3.3187 11.4963 2.86592 11.064 2.48235ZM7.67421 1.12414C8.05607 1.38926 8.49009 1.56466 8.94535 1.63783H9.09791C9.2396 1.63934 9.3784 1.59686 9.49625 1.51594C8.91855 1.28789 8.30924 1.15563 7.69115 1.12414H7.67421ZM6.78439 1.31573C6.73971 1.34117 6.70857 1.38595 6.69964 1.43762C6.69964 1.58564 6.89455 1.75106 6.89455 1.75106C7.0428 1.87032 7.1376 2.04626 7.15726 2.23864C7.15726 2.53467 6.87761 2.90035 5.7505 3.18767C5.7505 3.18767 4.54712 3.42276 4.54712 3.84939C4.54712 4.03223 4.69119 4.09317 4.90305 4.09317C5.14672 4.09805 5.39038 4.0835 5.63186 4.04964C5.90914 3.97725 6.19334 3.93637 6.4793 3.92775C7.11489 3.92775 7.86064 4.24119 8.0047 5.79099C8.0047 5.79099 8.06407 7.09698 8.31827 7.17538C8.57248 7.25371 8.59794 6.64426 8.76739 5.93029C8.88605 5.37306 9.35212 4.31955 10.3691 4.31955C10.6973 4.32891 11.019 4.41528 11.3097 4.57205C11.6639 4.78939 12.0504 4.9453 12.4538 5.0335C12.5301 5.0335 12.5894 5.0335 12.6148 4.95514C12.6403 4.87678 12.7843 4.58946 11.6742 4.08446C10.903 3.74491 10.3267 3.39664 10.3267 2.90035C10.343 2.67375 10.4325 2.45922 10.581 2.29088C10.6716 2.19006 10.7281 2.06176 10.742 1.9252C10.7459 1.87221 10.7309 1.81955 10.6996 1.77719C10.649 1.71096 10.5695 1.67503 10.4878 1.68141C10.2369 1.72328 9.99896 1.82463 9.7928 1.97744C9.59248 2.10495 9.35863 2.16577 9.12338 2.15157C8.50556 2.11533 7.91372 1.88426 7.42845 1.48987C7.30016 1.3823 7.14401 1.31571 6.9793 1.29832C6.91398 1.28619 6.84669 1.29221 6.78439 1.31573ZM6.07253 1.31572C3.57262 1.83082 1.74505 4.04363 1.65733 6.66163C1.65955 6.91816 1.67938 7.17416 1.71665 7.42788C2.18139 10.1272 4.49852 12.0709 7.16574 11.9988C7.46919 11.9972 7.77218 11.9739 8.07251 11.9292C10.7759 11.5835 12.8323 9.26765 12.9199 6.4701C12.9179 6.21647 12.898 5.96332 12.8606 5.71262V5.59943C12.7879 5.61444 12.713 5.61444 12.6403 5.59943C12.0741 5.534 11.5251 5.35973 11.0216 5.08573C10.8158 4.98155 10.5901 4.92507 10.3606 4.9203C10.2247 4.91661 10.0894 4.94027 9.96232 4.98996C9.48211 5.36276 9.17498 5.92444 9.11487 6.53976C9.0874 6.90315 8.9925 7.25782 8.8352 7.58453C8.70987 7.76548 8.50889 7.87512 8.29288 7.8806C8.08887 7.87694 7.89677 7.78148 7.76745 7.61942C7.54353 7.14445 7.42762 6.62346 7.42845 6.09571C7.42845 5.93029 7.36065 4.98996 6.88609 4.66781C6.71326 4.56766 6.51652 4.51938 6.31829 4.5285C5.86524 4.57278 5.41526 4.64548 4.97085 4.74617H4.71661C4.3564 4.77821 4.01606 4.57191 3.86916 4.23247C3.83299 4.15673 3.81552 4.07301 3.81832 3.98869C3.82532 3.77778 3.90663 3.57667 4.04713 3.42275C4.56666 3.02955 5.17172 2.77253 5.80982 2.67397C6.03938 2.62166 6.25583 2.52085 6.44541 2.37794C6.50473 2.33441 6.53015 2.317 6.53015 2.29958C6.53015 2.28217 6.46236 2.22122 6.33524 2.0645C6.17917 1.91731 6.08242 1.71541 6.06406 1.49856C6.06699 1.42134 6.08127 1.34502 6.10643 1.27219L6.07253 1.31572ZM8.8098 0.6888C8.36535 0.604891 7.91424 0.564076 7.46235 0.566911C6.71128 0.564251 5.96461 0.684762 5.2505 0.923886C2.41553 1.80754 0.43614 4.4387 0.318359 7.48007C0.319601 8.07085 0.408182 8.65797 0.581068 9.2214C1.07305 10.7634 2.14807 12.0373 3.56409 12.7563C4.58491 13.3147 5.72121 13.6133 6.87761 13.627C7.60228 13.628 8.32271 13.5135 9.01315 13.2875C11.8852 12.4184 13.8777 9.73706 13.9368 6.66163C13.9381 6.09665 13.8639 5.53419 13.7165 4.98992C13.4795 4.15 13.0559 3.37807 12.4793 2.73488C12.094 2.35039 11.6773 2.00083 11.2335 1.69007C11.2406 1.75662 11.2406 1.82378 11.2335 1.89033V1.95128C12.1296 2.62999 12.7964 3.57992 13.1403 4.66777C13.3289 5.22773 13.4235 5.81658 13.4199 6.40912C13.4196 7.34552 13.1924 8.26712 12.7589 9.09081C11.9436 10.6363 10.5667 11.788 8.92839 12.2948C8.28962 12.5022 7.62377 12.6079 6.95388 12.6083C4.40812 12.6783 2.11269 11.0426 1.28445 8.56837C1.1242 8.04449 1.04415 7.49813 1.04716 6.94894C1.13433 4.18282 2.94909 1.79064 5.53864 1.02837C5.88952 0.915916 6.24983 0.837219 6.6149 0.79328H6.80133H7.46235C8.34936 0.787009 9.2285 0.964686 10.0471 1.31569L10.1742 1.21992V1.13285C9.73957 0.925943 9.28105 0.776731 8.8098 0.6888Z" fill="#131836"/>
</svg>
